PathFileType	4	(X/Y/Z)	E:\Marcel_BSc\Ayumi_22_01_2025\22-01-2025\conv_dl_0.trc
DataRate	CameraRate	NumFrames	NumMarkers	Units	OrigDataRate	OrigDataStartFrame	OrigNumFrames
200.0	200.0	8	47	mm	200.0	588	2348	
Frame#	Time	FHD			LBHD			RBHD			RBAR			LBAR			RSACR			LSACR			USACR			C7			CLAV			T10			RSHO			LSHO			LTHI1			LTHI3			LTHI2			LTIB1			LTIB2			LTIB3			LMMAL			LLMAL			LHEE			LMT1			LMT5			LMT3			RTHI1			RTHI2			RTHI3			RTIB1			RTIB3			RTIB2			RLMAL			RMMAL			RHEE			RMT5			RMT1			RMT3			LMUPA			LDUPA			LUUPA			LRAD			RUL			RRAD			RUFIN			RMUPA			RDUPA			RUUPA			
		X1	Y1	Z1	X2	Y2	Z2	X3	Y3	Z3	X4	Y4	Z4	X5	Y5	Z5	X6	Y6	Z6	X7	Y7	Z7	X8	Y8	Z8	X9	Y9	Z9	X10	Y10	Z10	X11	Y11	Z11	X12	Y12	Z12	X13	Y13	Z13	X14	Y14	Z14	X15	Y15	Z15	X16	Y16	Z16	X17	Y17	Z17	X18	Y18	Z18	X19	Y19	Z19	X20	Y20	Z20	X21	Y21	Z21	X22	Y22	Z22	X23	Y23	Z23	X24	Y24	Z24	X25	Y25	Z25	X26	Y26	Z26	X27	Y27	Z27	X28	Y28	Z28	X29	Y29	Z29	X30	Y30	Z30	X31	Y31	Z31	X32	Y32	Z32	X33	Y33	Z33	X34	Y34	Z34	X35	Y35	Z35	X36	Y36	Z36	X37	Y37	Z37	X38	Y38	Z38	X39	Y39	Z39	X40	Y40	Z40	X41	Y41	Z41	X42	Y42	Z42	X43	Y43	Z43	X44	Y44	Z44	X45	Y45	Z45	X46	Y46	Z46	X47	Y47	Z47	
588	2.93	-186.44931	863.58789	-571.58533	-164.13318	879.53711	-513.46429	-148.18307	888.84631	-643.29926	242.14064	241.52914	-1723.5582	264.39435	251.68326	499.28278	522.67139	864.25726	-657.18365	526.16132	861.37341	-583.9339	514.28918	868.73499	-619.97937	58.843288	987.83795	-578.17615	92.306633	828.89386	-590.41064	340.52759	937.98456	-603.89758	36.08408	841.16687	-723.12201	74.479996	838.81793	-439.94006	391.9368	550.01965	-422.64136	362.11597	494.84824	-438.92239	329.3432	531.38293	-426.64093	294.22787	237.38489	-412.3656	345.57779	240.39931	-416.41394	320.19278	177.73039	-419.86713	326.80066	74.130119	-502.07956	348.20029	73.322556	-427.72357	387.97571	36.233887	-472.81769	190.62784	45.335701	-452.3526	222.23328	28.297039	-377.84857	194.16121	42.495617	-416.77304	389.0271	548.91132	-825.59839	326.16595	530.82544	-819.59381	360.07468	494.33383	-804.95264	287.47217	269.19785	-816.35419	314.65851	211.30376	-804.67871	337.83911	272.36331	-811.85278	343.46921	74.367081	-777.15747	308.99197	80.236656	-706.3819	385.02338	31.737816	-730.27362	211.36369	32.190514	-813.35602	184.5416	41.539459	-752.18707	191.06416	38.660164	-782.86755	190.11501	694.57849	-369.9585	236.11653	712.82556	-362.56348	166.83231	751.69421	-371.1217	287.57825	394.6449	-309.15488	197.80637	388.63107	-891.21393	196.27245	374.86624	-830.08997	196.8508	306.30313	-838.41486	99.878029	768.6441	-817.73413	122.76503	714.86029	-839.71924	139.64499	791.98303	-836.0813
589	2.935	-186.37129	860.78864	-571.53912	-164.11198	876.9411	-513.33551	-148.21294	886.14728	-643.20599	242.03606	241.52675	-1723.5867	264.31845	251.6906	499.28925	522.76562	863.41852	-656.86053	526.11395	860.77423	-583.7182	514.28662	868.02356	-619.77948	58.50713	985.71448	-578.19012	92.421272	826.91559	-590.36707	340.31216	936.78326	-603.78253	36.269581	839.01013	-722.86835	74.363556	836.79565	-439.90887	391.95807	549.87567	-422.51401	362.00546	494.57886	-438.95056	329.30728	531.32117	-426.61954	294.06866	237.37363	-412.32941	345.4736	240.39023	-416.37329	320.20401	177.73273	-419.858	326.80075	74.14843	-502.06345	348.06696	73.287766	-427.75128	387.97314	36.212784	-472.82318	190.63216	45.3522	-452.34033	222.2366	28.303421	-377.84686	194.14093	42.507809	-416.78131	388.73703	548.97913	-825.58459	326.24548	530.66583	-819.5694	360.08276	494.12347	-804.81384	287.48123	269.2244	-816.30798	314.66476	211.31325	-804.60352	337.82077	272.43039	-811.75403	343.44388	74.39875	-777.17371	309.00992	80.217598	-706.41302	385.03958	31.729225	-730.29285	211.54813	32.444691	-813.46509	184.54352	41.553688	-752.20245	191.20552	38.877918	-782.88025	190.11473	692.60474	-369.97101	236.12503	710.87012	-362.54352	166.78714	749.7085	-371.09003	287.6673	392.65924	-309.37555	198.05562	386.62787	-891.35962	196.52179	372.94232	-829.85132	197.32745	304.42319	-837.96136	99.682144	766.6944	-817.54828	122.58442	712.93744	-839.51538	139.24126	789.94159	-836.28583
590	2.94	-184.67038	861.15527	-564.03516	-164.13727	874.40308	-513.2171	-148.3071	883.63177	-643.07422	241.92465	241.46371	-1723.5723	264.2471	251.69316	499.28278	522.71832	862.7738	-656.79889	526.18042	860.04797	-583.5	514.3822	867.29077	-619.67676	58.017647	983.78986	-577.76971	92.543404	824.96448	-590.35419	340.17844	935.81653	-603.60657	36.134739	837.14886	-722.70337	74.478622	834.50989	-439.90533	391.89886	549.771	-422.37469	361.84769	494.32535	-438.98254	329.28879	531.24384	-426.57715	293.91449	237.39877	-412.30273	345.40936	240.4361	-416.36197	320.04013	177.59866	-419.8439	326.77341	74.139618	-502.05051	348.09558	73.289612	-427.72256	387.97144	36.225075	-472.8136	190.61726	45.351871	-452.3548	222.2128	28.305651	-377.85657	194.13368	42.505291	-416.78677	388.81702	548.70874	-825.4212	326.24081	530.5683	-819.45319	360.03189	493.93756	-804.61035	286.58057	269.15317	-815.34857	314.66315	211.31587	-804.52399	337.76538	272.45267	-811.63989	343.44766	74.407845	-777.18597	309.01901	80.215851	-706.4151	385.04593	31.706306	-730.30573	211.56023	32.42981	-813.46075	184.58278	41.537361	-752.20398	191.21805	38.877369	-782.87311	190.09555	690.61237	-369.99356	236.10333	708.93683	-362.52744	166.74652	747.70087	-371.05923	287.69873	390.70178	-309.58585	198.42436	384.84805	-890.70837	196.84827	371.06381	-829.56281	197.7509	302.57745	-837.55341	99.516563	764.80371	-817.35358	122.47396	710.94745	-839.3454	139.18401	788.14008	-835.93042
591	2.945	-186.18161	855.5199	-571.27002	-164.13669	871.90332	-513.11591	-148.22002	880.88391	-643.0249	241.83034	241.43761	-1723.6147	264.1647	251.7058	499.30569	522.92114	861.94104	-656.48755	526.18665	859.33661	-583.37689	514.44354	866.48608	-619.51074	57.686138	981.7049	-577.75378	92.678589	823.04663	-590.36456	339.91156	934.39819	-603.58899	36.110012	835.16241	-722.53973	74.558563	832.4425	-439.96176	391.9487	549.5899	-422.28601	361.63815	494.12137	-438.9682	329.21646	531.1626	-426.57523	293.1907	238.46159	-411.61069	345.20831	240.44986	-416.37097	319.96024	177.69635	-419.84439	326.77606	74.147545	-502.07169	348.14935	73.321114	-427.69247	387.97009	36.224991	-472.8136	190.6217	45.35442	-452.35779	222.24063	28.305113	-377.86725	194.14252	42.522999	-416.77228	389.20981	548.18457	-825.11737	326.04282	530.5578	-818.64038	359.97061	493.67908	-804.51343	287.41116	269.60147	-816.08118	314.62253	211.36382	-804.47131	337.71124	272.47729	-811.54761	343.44949	74.409012	-777.22278	309.00299	80.222183	-706.41693	385.05753	31.698969	-730.31097	211.55301	32.443233	-813.46564	184.58351	41.536045	-752.21735	191.22745	38.907516	-782.89606	190.04378	688.67438	-370.05969	236.03807	707.01013	-362.53665	166.14897	745.88434	-371.19308	287.70422	388.7666	-309.82452	198.43571	382.76703	-890.92865	197.22362	369.23694	-829.29517	198.11922	300.68271	-837.30774	99.408333	762.85797	-817.18018	122.36004	709.034	-839.15149	138.98122	786.27637	-835.82227
592	2.95	-185.76997	853.0061	-571.36713	-164.12263	869.40472	-513.03082	-148.20784	878.30939	-642.95752	242.03285	241.33638	-1723.6722	264.08575	251.70464	499.29562	522.81305	861.29553	-656.45697	526.24384	858.65729	-583.14948	514.54498	865.72192	-619.34113	57.393929	979.81946	-577.64832	92.802757	821.21484	-590.30029	339.72519	933.22052	-603.50629	36.799034	832.95093	-722.01831	74.184593	830.67419	-439.72961	391.97177	549.34174	-422.10333	361.48975	493.86795	-438.93225	329.15903	531.0647	-426.5025	293.05832	238.43462	-411.60028	345.12082	240.41805	-416.3378	319.86835	177.72289	-419.86554	326.78622	74.147346	-502.05212	348.10852	73.288254	-427.68719	387.98325	36.227413	-472.79971	190.62091	45.373878	-452.34796	222.22275	28.328001	-377.87198	194.13531	42.539017	-416.79361	389.19949	547.93427	-824.99994	325.98566	530.44788	-818.47888	359.9035	493.42651	-804.3772	287.21622	269.7139	-815.83331	314.57767	211.35406	-804.39117	337.64948	272.46765	-811.45422	343.43924	74.411438	-777.23199	309.02771	80.208229	-706.43823	385.06546	31.673483	-730.33026	211.54095	32.454693	-813.47797	184.59644	41.543293	-752.20892	191.22574	38.90427	-782.8739	190.03333	686.745	-370.08377	235.98318	705.11334	-362.5101	165.98512	743.91193	-371.23376	287.71274	386.82864	-310.04459	198.56516	380.93604	-890.27411	197.48528	367.40253	-829.09686	198.32838	298.92087	-836.99963	99.33683	760.89935	-817.02429	122.2567	707.15643	-838.98535	138.61781	784.34338	-835.9826
593	2.955	-186.56454	850.07721	-571.08789	-164.12244	867.0144	-512.96436	-148.19585	875.80664	-642.90778	241.6575	241.23302	-1723.8131	264.04239	251.70676	499.26871	523.03198	860.4101	-656.17773	526.30566	857.88275	-583.08252	514.63251	865.02612	-619.22485	57.124092	977.86292	-577.62524	92.92984	819.34283	-590.26953	339.58621	931.75885	-603.63568	37.395473	830.6355	-721.50677	73.921371	828.90735	-439.53064	391.86642	549.09094	-422.01874	361.35397	493.64871	-438.90674	329.09875	530.92072	-426.44525	292.91095	238.49739	-411.59589	344.86374	240.43021	-416.30057	319.72873	177.76396	-419.87161	326.73315	74.19648	-502.0705	348.19418	73.317368	-427.64151	387.96396	36.241608	-472.79196	190.62346	45.375172	-452.34308	222.19673	28.328691	-377.87415	194.14612	42.531357	-416.77786	388.80856	547.8316	-825.00488	325.93585	530.2558	-818.32794	359.75482	493.25403	-804.2052	287.37186	269.83493	-815.85059	314.5155	211.40465	-804.3277	337.56882	272.48795	-811.3573	343.41541	74.44207	-777.24841	308.99496	80.204544	-706.41522	385.07013	31.670458	-730.32648	211.56354	32.435898	-813.47339	184.60039	41.52845	-752.19751	191.23058	38.910427	-782.86414	190.0098	684.82043	-370.15039	235.90714	703.23309	-362.4653	166.45555	741.84387	-371.10327	287.64352	384.96399	-310.23413	198.81627	379.07114	-890.49939	197.71066	365.59933	-828.92352	198.53842	297.18719	-836.72852	99.250984	759.00262	-816.84778	122.19283	705.27478	-838.84088	138.66699	782.47852	-835.68384
594	2.96	-185.78008	847.91656	-571.14722	-164.11128	864.61298	-512.92926	-148.15979	873.33252	-642.87762	241.8174	241.67575	-1723.5562	263.91125	251.72028	499.31406	523.0177	859.78357	-656.20337	526.35651	857.16956	-582.86945	514.75061	864.151	-619.11401	56.869762	975.92493	-577.58453	93.080696	817.47748	-590.25256	339.39157	930.88965	-603.39795	38.822758	827.46185	-721.06189	73.124573	827.31549	-439.19705	391.80624	548.74548	-422.00601	361.15558	493.33545	-438.93887	329.46411	530.77228	-425.79587	292.77942	238.50734	-411.61908	344.78946	240.45953	-416.26477	319.67245	177.84215	-419.88275	326.77649	74.147583	-502.05267	348.20123	73.31942	-427.61597	387.9678	36.218487	-472.79794	190.61133	45.371433	-452.37012	222.19431	28.33765	-377.88052	194.12488	42.535793	-416.76984	388.74084	547.54749	-824.90076	326.05045	529.80231	-818.49646	359.61136	492.97812	-804.06702	287.56305	269.89801	-815.8584	314.46216	211.44859	-804.23621	337.48724	272.49493	-811.24927	343.40546	74.426537	-777.24841	308.9805	80.19326	-706.42889	385.08945	31.615295	-730.39972	211.56102	32.427479	-813.44781	184.60878	41.513107	-752.19708	191.24341	38.893925	-782.87146	189.96181	682.98633	-370.20135	235.82925	701.40521	-362.43039	166.36018	739.93359	-371.15372	287.51602	383.11942	-310.46442	198.99989	377.27042	-890.3761	197.8208	363.76361	-828.83002	198.69099	295.5061	-836.42596	99.165161	757.17468	-816.67279	122.16665	703.43219	-838.70782	138.5392	780.67401	-835.54956
595	2.965	-184.32721	848.42554	-563.6413	-164.07175	862.27094	-512.86829	-148.25441	871.12958	-642.80585	241.43158	241.33051	-1723.7982	263.77087	251.71912	499.35931	523.2464	858.86127	-655.93134	526.45935	856.3985	-582.79059	514.73822	863.48596	-618.95203	56.673447	973.94269	-577.77698	93.20079	815.75568	-590.18286	339.21896	929.75189	-603.31738	38.815655	825.58191	-720.92719	73.136658	825.5769	-439.24939	391.7851	548.50177	-421.85983	361.03696	493.20248	-438.82623	329.31601	530.53491	-425.79691	288.5574	235.51657	-416.56772	344.5733	240.41635	-416.26773	319.80902	178.29857	-419.87573	326.74542	74.177925	-502.06006	348.09393	73.313232	-427.63211	387.95972	36.247684	-472.77341	190.61177	45.376461	-452.37418	222.23349	28.327751	-377.88409	194.14346	42.523464	-416.77731	388.70905	547.16779	-824.74976	325.91013	529.69165	-818.34143	359.40277	492.79434	-803.86713	287.7182	270.06708	-815.92413	314.33191	211.47408	-804.16718	337.36374	272.53363	-811.12689	343.39032	74.442932	-777.27045	308.97574	80.188667	-706.40436	385.10464	31.574551	-730.39447	211.57962	32.42749	-813.4693	184.61548	41.519108	-752.20032	191.25052	38.917885	-782.87183	189.92961	681.17688	-370.25485	235.74376	699.56537	-362.43414	165.65263	738.35077	-371.29947	287.31952	381.28271	-310.80231	199.13985	375.46887	-890.2746	197.9272	361.97006	-828.72418	198.76842	293.72931	-836.23334	99.135368	755.35065	-816.56097	122.16916	701.62848	-838.59277	138.55383	778.83362	-835.49811
